Release Notes: Video;Own



Audio:OWN Slight flicker and cropping issues not bad for a first cam enjoy



Video: ID : 224 (0xE0)

Format : MPEG Video

Format version : Version 2

Format profile : Main@Main

Format settings, BVOP : Yes

Format settings, Matrix : Default

Duration : 1h 33mn

Bit rate mode : Variable

Bit rate : 6 089 Kbps

Nominal bit rate : 8 808 Kbps

Width : 720 pixels

Height : 480 pixels

Display aspect ratio : 4:3

Frame rate : 29.970 fps

Standard : NTSC

Color space : YUV

Chroma subsampling : 4:2:0

Bit depth : 8 bits

Scan type : Progressive

Bits/(Pixel*Frame) : 0.588

Stream size : 3.99 GiB (95%)



Audio: ID : 128 (0x80)

Format : AC-3

Format/Info : Audio Coding 3

Mode extension : CM (complete main)

Duration : 1h 33mn

Bit rate mode : Constant

Bit rate : 192 Kbps

Channel(s) : 2 channels

Channel positions : Front: L R

Sampling rate : 48.0 KHz

Bit depth : 16 bits

Stream size : 129 MiB (3%)



Duration:1:34